<svg xmlns="http://www.w3.org/2000/svg" viewBox="0 0 25 31.04"><defs><style>.cls-1{fill:#fff;}</style></defs><g id="Capa_2" data-name="Capa 2"><g id="Capa_1-2" data-name="Capa 1"><path class="cls-1" d="M17.12,31A9.59,9.59,0,0,1,11,29a19.58,19.58,0,0,1-4-4.12A42.63,42.63,0,0,1,1,13.83,15.2,15.2,0,0,1,0,9.12,9.16,9.16,0,0,1,2.4,2.52,10,10,0,0,1,4.77.45,2.81,2.81,0,0,1,6,0,1.29,1.29,0,0,1,7.13.43,2.92,2.92,0,0,1,7.56,1,33.85,33.85,0,0,1,10,7a2.86,2.86,0,0,1,.13.66,1.08,1.08,0,0,1-.55,1.08,6,6,0,0,1-1.47.57L6.92,9.6a1.26,1.26,0,0,0-1,1.57,14.16,14.16,0,0,0,1,3.17,31.49,31.49,0,0,0,4.81,7.85,10.68,10.68,0,0,0,1.15,1.18,1.3,1.3,0,0,0,2,0l1.21-1.15a4.11,4.11,0,0,1,.82-.62,1.12,1.12,0,0,1,1.31.1,5.61,5.61,0,0,1,.62.58A35.59,35.59,0,0,1,22.54,27a4.25,4.25,0,0,1,.31.6,1.37,1.37,0,0,1-.28,1.59,3.88,3.88,0,0,1-1.36.91A11.23,11.23,0,0,1,17.12,31Z"/><path class="cls-1" d="M25,17.46A14.81,14.81,0,0,1,24.79,20a.87.87,0,0,1-.94.76.84.84,0,0,1-.76-1,16.92,16.92,0,0,0,.19-2.66,14,14,0,0,0-9-12.8.94.94,0,0,1-.7-.76.86.86,0,0,1,1.21-.89,15.27,15.27,0,0,1,4.73,2.79A15.68,15.68,0,0,1,25,16.17C25,16.6,25,17,25,17.46Z"/><path class="cls-1" d="M21.6,17.44a12.27,12.27,0,0,1-.11,1.71.86.86,0,0,1-.94.76.83.83,0,0,1-.77-.93,11.84,11.84,0,0,0,.06-2.38,10.51,10.51,0,0,0-5.38-8.42,10.89,10.89,0,0,0-1.19-.58A.86.86,0,1,1,13.92,6a12.25,12.25,0,0,1,7.42,8.9A10.71,10.71,0,0,1,21.6,17.44Z"/><path class="cls-1" d="M18.21,17.45c0,.27,0,.54,0,.8a.85.85,0,0,1-1,.77.87.87,0,0,1-.75-.95,7.21,7.21,0,0,0-4.1-7.16.89.89,0,0,1-.56-.88A.86.86,0,0,1,13,9.33a8.95,8.95,0,0,1,5.18,8.12Z"/></g></g></svg>